<svg width="250" height="50" viewBox="0 0 250 50" fill="none" xmlns="http://www.w3.org/2000/svg">
<path d="M14.2743 7.98433C20.5118 6.1635 30.1519 15.5067 30.1519 15.5067C30.1519 15.5067 37.4796 6.97912 46.0296 7.98433C56.3853 9.20152 54.0582 22.9619 53.165 28.5515C57.3342 21.9812 56.4962 13.7578 55.7546 11.5197C54.7473 8.47652 52.2103 5.93225 49.1072 4.98329C38.4348 1.71923 30.1519 9.9234 30.1519 9.9234C30.1519 9.9234 20.0394 0.842145 11.2447 4.43694C4.03945 7.38173 0.0274682 17.8593 10.8613 26.377C17.9384 31.9406 24.3233 34.8609 29.4796 43.8046C28.5676 36.8244 19.9775 30.2802 14.0618 25.6291C5.02539 18.5239 8.03684 9.80465 14.2743 7.98433Z" fill="#00C0FF"/>
<mask id="mask0_2262_1153" style="mask-type:luminance" maskUnits="userSpaceOnUse" x="14" y="20" width="35" height="29">
<path d="M14.541 20.2667H48.141V48.8553H14.541V20.2667Z" fill="white"/>
</mask>
<g mask="url(#mask0_2262_1153)">
<path d="M37.8241 37.2932C43.5428 31.0771 46.6444 24.8068 47.2861 20.3396C50.0652 27.6703 45.6345 40.2833 33.2168 48.8542C34.7392 41.1729 28.2736 29.4485 14.5996 23.0078C32.7913 27.0745 37.8241 37.2932 37.8241 37.2932Z" fill="#043570"/>
</g>
<path d="M41.3516 26.1489C41.3516 28.2609 39.6183 29.9729 37.4803 29.9729C35.3417 29.9729 33.6084 28.2609 33.6084 26.1489C33.6084 24.0369 35.3417 22.325 37.4803 22.325C39.6183 22.325 41.3516 24.0369 41.3516 26.1489Z" fill="#043570"/>
<path d="M76.4264 31.2642H76.5327L83.9098 11.635H89.3431V37.1538H85.0848V18.8204L84.9806 18.8038L77.9514 37.1538H75.0243L67.8743 18.4538L67.7681 18.4892V37.1538H63.5098V11.635H69.1014L76.4264 31.2642Z" fill="#043570"/>
<path d="M105.71 37.1538C105.557 36.6747 105.431 36.2075 105.331 35.7517C105.232 35.2965 105.165 34.8408 105.131 34.3851C104.558 35.2726 103.793 36.0179 102.835 36.6205C101.876 37.2215 100.808 37.5226 99.6286 37.5226C97.6536 37.5226 96.1369 37.0142 95.0786 35.9976C94.0213 34.9809 93.4932 33.5845 93.4932 31.808C93.4932 29.9736 94.2171 28.545 95.6661 27.5226C97.1161 26.5007 99.1546 25.9892 101.783 25.9892H105.095V24.3247C105.095 23.3319 104.806 22.5549 104.229 21.9934C103.65 21.4325 102.812 21.1517 101.714 21.1517C100.744 21.1517 99.9729 21.383 99.3994 21.8455C98.827 22.3069 98.5411 22.9054 98.5411 23.6413L94.4411 23.658L94.4223 23.5538C94.34 22.058 95.0088 20.7319 96.4286 19.5747C97.8479 18.4179 99.6973 17.8392 101.976 17.8392C104.185 17.8392 105.967 18.4007 107.322 19.5226C108.678 20.645 109.356 22.2575 109.356 24.3601V32.7892C109.356 33.5726 109.408 34.3241 109.512 35.0434C109.617 35.7616 109.787 36.4653 110.02 37.1538H105.71ZM100.504 34.1038C101.567 34.1038 102.529 33.8351 103.387 33.2976C104.245 32.7601 104.815 32.147 105.095 31.458V28.6538H101.714C100.475 28.6538 99.5046 28.9611 98.8036 29.5747C98.1036 30.1872 97.7536 30.909 97.7536 31.7392C97.7536 32.4632 97.9895 33.0382 98.4619 33.4642C98.9354 33.8908 99.6161 34.1038 100.504 34.1038Z" fill="#043570"/>
<path d="M117.66 18.1913L117.904 20.9247C118.523 19.9554 119.303 19.1991 120.244 18.6559C121.185 18.1116 122.246 17.8392 123.425 17.8392C125.4 17.8392 126.939 18.447 128.044 19.6622C129.148 20.8778 129.7 22.7762 129.7 25.358V37.1538H125.441V25.3934C125.441 23.9215 125.154 22.8757 124.581 22.2559C124.009 21.6366 123.144 21.3267 121.987 21.3267C121.076 21.3267 120.287 21.4997 119.621 21.8455C118.955 22.1903 118.424 22.6658 118.027 23.2726V37.1538H113.769V18.1913H117.66Z" fill="#043570"/>
<path d="M139.583 13.5809V18.1913H142.983V21.3455H139.583V31.8268C139.583 32.6091 139.752 33.1663 140.091 33.4997C140.429 33.833 140.879 33.9997 141.441 33.9997C141.674 33.9997 141.902 33.9799 142.124 33.9393C142.346 33.8976 142.557 33.8414 142.755 33.7705L143.212 36.8913C142.849 37.0903 142.419 37.2445 141.922 37.3559C141.426 37.4669 140.91 37.5226 140.372 37.5226C138.805 37.5226 137.575 37.0643 136.68 36.1476C135.787 35.2299 135.341 33.7893 135.341 31.8268V21.3455H132.449V18.1913H135.341V13.5809H139.583Z" fill="#043570"/>
<path d="M155.863 22.0288L154.04 21.958C153.211 21.958 152.518 22.134 151.963 22.4851C151.409 22.8351 150.979 23.3319 150.675 23.9747V37.1538H146.417V18.1913H150.307L150.588 20.9413C151.067 19.972 151.683 19.2132 152.436 18.6642C153.19 18.1142 154.058 17.8392 155.04 17.8392C155.297 17.8392 155.536 17.8601 155.759 17.9017C155.981 17.9424 156.185 17.9913 156.371 18.0497L155.863 22.0288Z" fill="#043570"/>
<path d="M170.443 37.1538C170.29 36.6747 170.164 36.2075 170.064 35.7517C169.965 35.2965 169.898 34.8408 169.864 34.3851C169.292 35.2726 168.527 36.0179 167.568 36.6205C166.61 37.2215 165.541 37.5226 164.362 37.5226C162.387 37.5226 160.87 37.0142 159.812 35.9976C158.755 34.9809 158.227 33.5845 158.227 31.808C158.227 29.9736 158.951 28.545 160.399 27.5226C161.849 26.5007 163.888 25.9892 166.516 25.9892H169.829V24.3247C169.829 23.3319 169.54 22.5549 168.962 21.9934C168.384 21.4325 167.546 21.1517 166.447 21.1517C165.478 21.1517 164.706 21.383 164.133 21.8455C163.56 22.3069 163.274 22.9054 163.274 23.6413L159.174 23.658L159.156 23.5538C159.073 22.058 159.742 20.7319 161.162 19.5747C162.581 18.4179 164.431 17.8392 166.71 17.8392C168.918 17.8392 170.7 18.4007 172.056 19.5226C173.411 20.645 174.089 22.2575 174.089 24.3601V32.7892C174.089 33.5726 174.141 34.3241 174.245 35.0434C174.351 35.7616 174.52 36.4653 174.754 37.1538H170.443ZM165.237 34.1038C166.301 34.1038 167.262 33.8351 168.12 33.2976C168.979 32.7601 169.548 32.147 169.829 31.458V28.6538H166.447C165.208 28.6538 164.238 28.9611 163.537 29.5747C162.837 30.1872 162.487 30.909 162.487 31.7392C162.487 32.4632 162.723 33.0382 163.195 33.4642C163.669 33.8908 164.349 34.1038 165.237 34.1038Z" fill="#043570"/>
<path d="M197.619 28.8122L197.654 28.9163C197.701 31.4872 196.866 33.5643 195.148 35.1476C193.43 36.7309 191.111 37.5226 188.19 37.5226C185.222 37.5226 182.815 36.5205 180.969 34.5163C179.123 32.5122 178.2 29.9507 178.2 26.8309V21.9768C178.2 18.8684 179.111 16.307 180.934 14.2913C182.757 12.2762 185.135 11.2684 188.067 11.2684C191.069 11.2684 193.432 12.0341 195.156 13.5643C196.88 15.095 197.718 17.1924 197.671 19.8559L197.638 19.9601H193.519C193.519 18.2549 193.057 16.9492 192.134 16.0434C191.21 15.1382 189.854 14.6851 188.067 14.6851C186.338 14.6851 184.967 15.3721 183.956 16.7455C182.947 18.1179 182.442 19.8497 182.442 21.9413V26.8309C182.442 28.9466 182.955 30.6908 183.984 32.0643C185.011 33.4367 186.413 34.1226 188.19 34.1226C189.931 34.1226 191.255 33.6674 192.161 32.7559C193.066 31.8434 193.519 30.5289 193.519 28.8122H197.619Z" fill="#00C0FF"/>
<path d="M212.742 37.1538C212.589 36.6747 212.463 36.2075 212.363 35.7517C212.264 35.2965 212.197 34.8408 212.163 34.3851C211.59 35.2726 210.825 36.0179 209.867 36.6205C208.909 37.2215 207.84 37.5226 206.661 37.5226C204.686 37.5226 203.169 37.0142 202.111 35.9976C201.054 34.9809 200.525 33.5845 200.525 31.808C200.525 29.9736 201.249 28.545 202.698 27.5226C204.148 26.5007 206.187 25.9892 208.815 25.9892H212.127V24.3247C212.127 23.3319 211.838 22.5549 211.261 21.9934C210.683 21.4325 209.845 21.1517 208.746 21.1517C207.776 21.1517 207.005 21.383 206.432 21.8455C205.859 22.3069 205.573 22.9054 205.573 23.6413L201.473 23.658L201.455 23.5538C201.372 22.058 202.041 20.7319 203.461 19.5747C204.88 18.4179 206.73 17.8392 209.009 17.8392C211.217 17.8392 212.999 18.4007 214.355 19.5226C215.71 20.645 216.388 22.2575 216.388 24.3601V32.7892C216.388 33.5726 216.44 34.3241 216.544 35.0434C216.649 35.7616 216.819 36.4653 217.052 37.1538H212.742ZM207.536 34.1038C208.599 34.1038 209.561 33.8351 210.419 33.2976C211.277 32.7601 211.847 32.147 212.127 31.458V28.6538H208.746C207.507 28.6538 206.537 28.9611 205.836 29.5747C205.136 30.1872 204.786 30.909 204.786 31.7392C204.786 32.4632 205.022 33.0382 205.494 33.4642C205.968 33.8908 206.648 34.1038 207.536 34.1038Z" fill="#00C0FF"/>
<path d="M230.283 22.0288L228.46 21.958C227.631 21.958 226.938 22.134 226.383 22.4851C225.829 22.8351 225.399 23.3319 225.095 23.9747V37.1538H220.837V18.1913H224.726L225.008 20.9413C225.487 19.972 226.103 19.2132 226.856 18.6642C227.61 18.1142 228.478 17.8392 229.46 17.8392C229.717 17.8392 229.956 17.8601 230.179 17.9017C230.4 17.9424 230.605 17.9913 230.791 18.0497L230.283 22.0288Z" fill="#00C0FF"/>
<path d="M241.48 37.5225C238.71 37.5225 236.545 36.6491 234.986 34.9017C233.426 33.1548 232.646 30.8908 232.646 28.11V27.41C232.646 24.6283 233.426 22.335 234.986 20.5309C236.545 18.7257 238.558 17.8283 241.024 17.8392C243.57 17.8392 245.499 18.6257 246.807 20.1975C248.116 21.7684 248.771 23.8684 248.771 26.4975V28.7934H237.046L237.011 28.8809C237.058 30.435 237.467 31.6975 238.238 32.6684C239.009 33.6382 240.171 34.1225 241.726 34.1225C242.882 34.1225 243.885 33.9824 244.732 33.7017C245.579 33.4215 246.364 33.0179 247.088 32.4913L248.474 35.2788C247.749 35.9095 246.79 36.4413 245.599 36.8746C244.407 37.3064 243.034 37.5225 241.48 37.5225ZM241.024 21.258C239.914 21.258 239.026 21.658 238.359 22.458C237.693 23.258 237.279 24.3012 237.115 25.5871L237.151 25.6746H244.565V25.3413C244.565 24.1262 244.282 23.1423 243.715 22.3892C243.149 21.635 242.251 21.258 241.024 21.258Z" fill="#00C0FF"/>
</svg>
